<svg xmlns="http://www.w3.org/2000/svg" xmlns:xlink="http://www.w3.org/1999/xlink" viewBox="0 0 3600 1909.39"><defs><style>.cls-1{fill:url(#linear-gradient);}.cls-2{opacity:0.07;}.cls-3{fill:url(#linear-gradient-2);}.cls-4{fill:#dadce0;}.cls-5{fill:#c9ccd0;}.cls-6{fill:#f1f3f4;}.cls-7{fill:#e8eaed;}.cls-8{fill:#bdc1c6;}.cls-9{opacity:0.03;}.cls-10,.cls-11,.cls-12,.cls-31,.cls-33,.cls-42,.cls-43{fill:none;stroke-miterlimit:10;}.cls-10,.cls-11,.cls-12{stroke:#bdc1c6;}.cls-10{stroke-width:0.5px;}.cls-11,.cls-12{stroke-width:1px;}.cls-12{stroke-dasharray:1 0.5;}.cls-13,.cls-14,.cls-23{fill:#fff;}.cls-13{opacity:0.9;}.cls-14,.cls-30{opacity:0.4;}.cls-15{fill:url(#linear-gradient-3);}.cls-16{fill:url(#linear-gradient-4);}.cls-17{fill:url(#linear-gradient-5);}.cls-18{fill:url(#linear-gradient-6);}.cls-19{fill:url(#linear-gradient-7);}.cls-20{fill:#4285f4;}.cls-21{fill:#ffcc80;}.cls-22{fill:#4e342e;}.cls-24,.cls-25,.cls-38{fill:#d4d7da;}.cls-24{opacity:0.45;}.cls-26{fill:#71a3f7;}.cls-27{fill:url(#linear-gradient-8);}.cls-28{fill:url(#linear-gradient-9);}.cls-29{fill:#1967d2;}.cls-31,.cls-42{stroke:#d4d7da;}.cls-31,.cls-33{stroke-width:0.99px;}.cls-32{fill:#ffb74d;}.cls-33,.cls-43{stroke:#fff;stroke-linecap:round;}.cls-34{fill:#fbbc04;}.cls-35{fill:#c4843b;}.cls-36{fill:#995e1a;}.cls-37{fill:#fccd43;}.cls-38{opacity:0.6;}.cls-39{fill:url(#linear-gradient-10);}.cls-40{fill:#eeeff1;}.cls-41{fill:#f29900;}.cls-42,.cls-43{stroke-width:0.95px;}.cls-44{fill:url(#linear-gradient-11);}</style><linearGradient id="linear-gradient" x1="1800" y1="1909.39" x2="1800" y2="233.39" gradientUnits="userSpaceOnUse"><stop offset="0" stop-color="#fff"/><stop offset="0.54" stop-color="#fcfcfd"/><stop offset="0.97" stop-color="#f2f4f5"/><stop offset="1" stop-color="#f1f3f4"/></linearGradient><linearGradient id="linear-gradient-2" x1="1796" y1="198.28" x2="1796" y2="247.29" gradientUnits="userSpaceOnUse"><stop offset="0" stop-color="#e8eaed"/><stop offset="0.65" stop-color="#ebedef"/><stop offset="1" stop-color="#f1f3f4"/></linearGradient><linearGradient id="linear-gradient-3" x1="3043.21" y1="22.55" x2="3061.97" y2="4.82" gradientTransform="matrix(-1, 0, 0, 1, 6055.9, 0)" gradientUnits="userSpaceOnUse"><stop offset="0" stop-color="#e8eaed"/><stop offset="0.57" stop-color="#eaecef"/><stop offset="0.81" stop-color="#f1f2f4"/><stop offset="0.98" stop-color="#fdfefe"/><stop offset="1" stop-color="#fff"/></linearGradient><linearGradient id="linear-gradient-4" x1="5098.51" y1="265.05" x2="5110.05" y2="254.15" gradientTransform="matrix(-0.96, 0.28, 0.28, 0.96, 5173.07, -1505.33)" xlink:href="#linear-gradient-3"/><linearGradient id="linear-gradient-5" x1="3565.04" y1="904.48" x2="3576.58" y2="893.58" gradientTransform="matrix(-0.96, 0.28, 0.28, 0.96, 5173.07, -1505.33)" xlink:href="#linear-gradient-3"/><linearGradient id="linear-gradient-6" x1="5673.72" y1="339.55" x2="5680.97" y2="332.69" gradientTransform="matrix(-0.96, -0.29, -0.29, 0.96, 6539.21, 1387.09)" xlink:href="#linear-gradient-3"/><linearGradient id="linear-gradient-7" x1="1356.92" y1="132.9" x2="1385.41" y2="105.98" gradientTransform="matrix(1, 0, 0, 1, 0, 0)" xlink:href="#linear-gradient-3"/><linearGradient id="linear-gradient-8" x1="1941.26" y1="335.52" x2="1995.53" y2="335.52" gradientUnits="userSpaceOnUse"><stop offset="0" stop-color="#e8eaed"/><stop offset="0.11" stop-color="#eef0f1"/><stop offset="0.32" stop-color="#f1f3f4"/><stop offset="0.76" stop-color="#eef0f2"/><stop offset="1" stop-color="#e8eaed"/></linearGradient><linearGradient id="linear-gradient-9" x1="1986.7" y1="338.16" x2="1994.51" y2="338.16" gradientUnits="userSpaceOnUse"><stop offset="0" stop-color="#fff" stop-opacity="0"/><stop offset="0.16" stop-color="#fff" stop-opacity="0.19"/><stop offset="0.47" stop-color="#fff" stop-opacity="0.53"/><stop offset="0.72" stop-color="#fff" stop-opacity="0.79"/><stop offset="0.91" stop-color="#fff" stop-opacity="0.94"/><stop offset="1" stop-color="#fff"/></linearGradient><linearGradient id="linear-gradient-10" x1="11893.96" y1="365.56" x2="11946.86" y2="365.56" gradientTransform="matrix(-1, 0, 0, 1, 14067.16, 0)" xlink:href="#linear-gradient-8"/><linearGradient id="linear-gradient-11" x1="2149.84" y1="376.8" x2="2167.81" y2="376.8" gradientUnits="userSpaceOnUse"><stop offset="0" stop-color="#fff" stop-opacity="0"/><stop offset="0.12" stop-color="#fff" stop-opacity="0.02"/><stop offset="0.25" stop-color="#fff" stop-opacity="0.07"/><stop offset="0.37" stop-color="#fff" stop-opacity="0.15"/><stop offset="0.5" stop-color="#fff" stop-opacity="0.26"/><stop offset="0.63" stop-color="#fff" stop-opacity="0.41"/><stop offset="0.76" stop-color="#fff" stop-opacity="0.59"/><stop offset="0.89" stop-color="#fff" stop-opacity="0.8"/><stop offset="1" stop-color="#fff"/></linearGradient></defs><title>orbital_onboarding_welcome_screen (2)</title><g id="Layer_2" data-name="Layer 2"><g id="_1-welcome_screen" data-name="1-welcome screen"><g id="orbital_onboarding_welcome_screen"><path class="cls-1" d="M2438.07,240.22l-14.18-4.8s-92.19-5.08-161.08,4.8h-586l-12.66,4L0,246,.05,1909.39l3600-.67V238.39l-304.1-5Z"/><path class="cls-2" d="M2198.36,249.33c-32.92,3.32-67.83,6.41-119.32,2.38-98.13-7.68-183.35,3.43-229.55,9.42,0,0,118.36-13,214.43-7.07,29.6,1.84,72.9.92,116.31-.72a37.28,37.28,0,0,0,9.33-1.51C2192.43,251,2195.37,250.13,2198.36,249.33Z"/><path class="cls-2" d="M1764.05,253.13c-13.41-1.22-65.54.54-83,1.57.12.63,18.76,1,34.53.56,9-.47,17.24-.86,23.43-1.07,24.64-.84,58.67,5.27,85.59.92s53.39-9,53.39-9S1800.81,256.47,1764.05,253.13Z"/><path class="cls-2" d="M2441.79,250.13c-16.44-.55-28.83,1.67-39.4.7-21-1.9-40.07-3.62-58.95-4.85q7,1.26,13.72,2.9a28.26,28.26,0,0,0,4.86.76c21.59,1.51,61.73,1,87.42,2.89C2448.66,251.7,2445,250.62,2441.79,250.13Z"/><path class="cls-3" d="M3592,240.22c-152-13.83-214-21.83-282-31.83-56.59-8.32-210.79,17.38-271,17-77.51-.49-151.82,8.53-225,8-78-.57-152.23-12.42-213-13-43.63-.42-88.53,12-117.66,11.63-40.44-.56-64.65-1.11-66.34-1.63-8.65-2.67-53.79-14.19-108.16-8.42-68,7.22-101.3,14.14-144.08,10.29s-90.25-11.82-147.56-9.23S1885,237.55,1864,235.26c-7.66-.89-17-4.4-22.45-4.91-14.07-1.33-49.87,6.66-58.16,7.19s-21.79-4.26-40.1-6.94c-6.58-1-17.54,0-28.88,1.65-5,.28-26.44.89-58.45,1.7-17.47.45-42.8-4.82-65.63-4.28-24.17.57-46.1,7-74.08,7.61-52,1.2-114.18-10.08-168.15-8.88-11,.24-111.11,13-145.51,10.85-134.82-8.36-128.31-8.13-201.6-5.86-40.37,1.25-102.13,4.73-149,5-53.55.3-113-21-168-13-120.93,17.59-168.12,13.39-208,5-57-12-135.54-4.55-202,3-44,5-133.21-3-170-3-39,0-104,15.88-104,15.88l1691.44-2.64s31.56-2.36,33.15-3.41Z"/><ellipse class="cls-4" cx="2251.17" cy="152.25" rx="1.95" ry="1.76"/><ellipse class="cls-5" cx="2155.49" cy="138.28" rx="1.95" ry="1.76"/><path class="cls-6" d="M2269,140.53l.3,1.56a.16.16,0,0,0,.14.12l1.72.27a.16.16,0,0,1,0,.31l-1.72.27a.17.17,0,0,0-.14.13l-.3,1.56a.18.18,0,0,1-.34,0l-.3-1.56a.17.17,0,0,0-.14-.13l-1.72-.27a.16.16,0,0,1,0-.31l1.72-.27a.16.16,0,0,0,.14-.12l.3-1.56A.17.17,0,0,1,2269,140.53Z"/><path class="cls-5" d="M2140.82,143.45l.3,1.56a.16.16,0,0,0,.14.13l1.72.27a.16.16,0,0,1,0,.31l-1.72.27a.16.16,0,0,0-.14.13l-.3,1.56a.18.18,0,0,1-.34,0l-.3-1.56a.16.16,0,0,0-.14-.13l-1.72-.27a.16.16,0,0,1,0-.31l1.72-.27a.16.16,0,0,0,.14-.13l.3-1.56A.18.18,0,0,1,2140.82,143.45Z"/><ellipse class="cls-7" cx="1646.94" cy="179.1" rx="1.95" ry="1.76"/><path class="cls-7" d="M1661.61,184.27l-.29,1.56a.17.17,0,0,1-.15.12l-1.72.27a.16.16,0,0,0,0,.31l1.72.27a.18.18,0,0,1,.15.13l.29,1.56a.18.18,0,0,0,.35,0l.29-1.56a.18.18,0,0,1,.15-.13l1.72-.27a.16.16,0,0,0,0-.31l-1.72-.27a.17.17,0,0,1-.15-.12l-.29-1.56A.18.18,0,0,0,1661.61,184.27Z"/><path class="cls-4" d="M1841.73,135.13l.3,1.56a.19.19,0,0,0,.14.13l1.72.27a.15.15,0,0,1,0,.3l-1.72.28a.16.16,0,0,0-.14.12l-.3,1.56a.17.17,0,0,1-.34,0l-.3-1.56a.16.16,0,0,0-.14-.12l-1.72-.28a.15.15,0,0,1,0-.3l1.72-.27a.19.19,0,0,0,.14-.13l.3-1.56A.18.18,0,0,1,1841.73,135.13Z"/><path class="cls-4" d="M2987.73,133.13l.3,1.56a.19.19,0,0,0,.14.13l1.72.27a.15.15,0,0,1,0,.3l-1.72.28a.16.16,0,0,0-.14.12l-.3,1.56a.17.17,0,0,1-.34,0l-.3-1.56a.16.16,0,0,0-.14-.12l-1.72-.28a.15.15,0,0,1,0-.3l1.72-.27a.19.19,0,0,0,.14-.13l.3-1.56A.18.18,0,0,1,2987.73,133.13Z"/><path class="cls-8" d="M1771.17,177.63l.64,3.37a.35.35,0,0,0,.31.28l3.73.59a.34.34,0,0,1,0,.67l-3.73.58a.38.38,0,0,0-.31.28l-.64,3.38a.39.39,0,0,1-.74,0l-.65-3.38a.38.38,0,0,0-.31-.28l-3.73-.58a.34.34,0,0,1,0-.67l3.73-.59a.35.35,0,0,0,.31-.28l.65-3.37A.38.38,0,0,1,1771.17,177.63Z"/><path class="cls-8" d="M587.17,151.63l.64,3.37a.35.35,0,0,0,.31.28l3.73.59a.34.34,0,0,1,0,.67l-3.73.58a.38.38,0,0,0-.31.28l-.64,3.38a.39.39,0,0,1-.74,0l-.65-3.38a.38.38,0,0,0-.31-.28l-3.73-.58a.34.34,0,0,1,0-.67l3.73-.59a.35.35,0,0,0,.31-.28l.65-3.37A.38.38,0,0,1,587.17,151.63Z"/><path class="cls-8" d="M3445.17,67.63l.64,3.37a.35.35,0,0,0,.31.28l3.73.59a.34.34,0,0,1,0,.67l-3.73.58a.38.38,0,0,0-.31.28l-.64,3.38a.39.39,0,0,1-.74,0l-.65-3.38a.38.38,0,0,0-.31-.28l-3.73-.58a.34.34,0,0,1,0-.67l3.73-.59a.35.35,0,0,0,.31-.28l.65-3.37A.38.38,0,0,1,3445.17,67.63Z"/><path class="cls-8" d="M877.06,61.9l.47,2.44a.27.27,0,0,0,.22.2l2.69.42a.24.24,0,0,1,0,.48l-2.69.42a.27.27,0,0,0-.22.2l-.47,2.44a.27.27,0,0,1-.53,0l-.47-2.44a.26.26,0,0,0-.22-.2l-2.68-.42a.24.24,0,0,1,0-.48l2.68-.42a.26.26,0,0,0,.22-.2l.47-2.44A.27.27,0,0,1,877.06,61.9Z"/><path class="cls-7" d="M158.17,118.63l.64,3.37a.35.35,0,0,0,.31.28l3.73.59a.34.34,0,0,1,0,.67l-3.73.58a.38.38,0,0,0-.31.28l-.64,3.38a.39.39,0,0,1-.74,0l-.65-3.38a.38.38,0,0,0-.31-.28l-3.73-.58a.34.34,0,0,1,0-.67l3.73-.59a.35.35,0,0,0,.31-.28l.65-3.37A.38.38,0,0,1,158.17,118.63Z"/><path class="cls-7" d="M2581.17,107.63l.64,3.37a.35.35,0,0,0,.31.28l3.73.59a.34.34,0,0,1,0,.67l-3.73.58a.38.38,0,0,0-.31.28l-.64,3.38a.39.39,0,0,1-.74,0l-.65-3.38a.38.38,0,0,0-.31-.28l-3.73-.58a.34.34,0,0,1,0-.67l3.73-.59a.35.35,0,0,0,.31-.28l.65-3.37A.38.38,0,0,1,2581.17,107.63Z"/><path class="cls-7" d="M3361.17,96.63l.64,3.37a.35.35,0,0,0,.31.28l3.73.59a.34.34,0,0,1,0,.67l-3.73.58a.38.38,0,0,0-.31.28l-.64,3.38a.39.39,0,0,1-.74,0l-.65-3.38a.38.38,0,0,0-.31-.28l-3.73-.58a.34.34,0,0,1,0-.67l3.73-.59a.35.35,0,0,0,.31-.28l.65-3.37A.38.38,0,0,1,3361.17,96.63Z"/><path class="cls-8" d="M1247.88,216.06l.64,3.37a.36.36,0,0,0,.31.28l3.73.59a.33.33,0,0,1,0,.66l-3.73.59a.36.36,0,0,0-.31.28l-.64,3.37a.38.38,0,0,1-.74,0l-.65-3.37a.36.36,0,0,0-.3-.28l-3.73-.59a.33.33,0,0,1,0-.66l3.73-.59a.36.36,0,0,0,.3-.28l.65-3.37A.38.38,0,0,1,1247.88,216.06Z"/><path class="cls-9" d="M2265.38,263.41c-1.1,0-3.44,0-6.09,0l17.86-7.51-5.57.08-17.4,7.37-3.53-.05L2268,256l-5.57.07-16.06,6.81a2.15,2.15,0,0,1-1.37-2.6l.71-1.53-51.53.61c-1.64,0-2.89,1.14-2.68,2.34a13.51,13.51,0,0,1,.1,3.71s-1.81,6.93-2.46,8.44c-4.8,11.31-4.38,20.84,19.83,14.75,14.28-3.59,42-17.16,56.85-23.93C2266.62,264.29,2266.31,263.39,2265.38,263.41Z"/><line class="cls-10" x1="2271.31" y1="193.7" x2="2249.17" y2="213.39"/><polygon class="cls-8" points="2272.53 254.41 2273.52 254.4 2273.67 249.82 2275.46 249.8 2275.31 254.37 2276.31 254.36 2277.15 255.88 2271.58 255.96 2272.53 254.41"/><polygon class="cls-8" points="2263.37 254.53 2264.37 254.51 2264.51 249.94 2266.3 249.91 2266.15 254.49 2267.15 254.48 2268 256 2262.43 256.07 2263.37 254.53"/><polyline class="cls-11" points="2265.37 251.1 2266.82 205.99 2275.98 205.88 2274.52 251.33"/><line class="cls-12" x1="2271.97" y1="188.09" x2="2271.41" y2="205.52"/><polyline class="cls-10" points="2266.63 212.03 2275.31 211.91 2275.26 212.38 2266.72 220.19 2266.72 220.52 2275.12 220.41 2275.13 220.75 2266.4 228.72 2266.47 229 2275.24 228.89"/><polygon class="cls-4" points="2249.13 214.65 2248.07 247.48 2263.26 247.28 2278.76 247.09 2278.9 242.91 2267.17 228.85 2249.13 214.65"/><polygon class="cls-13" points="2267.17 228.85 2255.27 219.49 2255.97 221.37 2266.65 229.78 2277.61 241.37 2267.17 228.85"/><polygon class="cls-4" points="2268 249.88 2260 249.98 2260.08 247.33 2268.09 247.22 2268 249.88"/><polygon class="cls-4" points="2281.43 247.05 2277.43 247.1 2277.63 241 2281.63 240.95 2281.43 247.05"/><polygon class="cls-4" points="2231.03 214.88 2229.97 247.71 2214.78 247.9 2199.29 248.1 2199.42 243.93 2212.06 229.55 2231.03 214.88"/><polygon class="cls-4" points="2209.88 250.62 2217.88 250.52 2217.97 247.86 2209.96 247.97 2209.88 250.62"/><polygon class="cls-4" points="2196.62 248.13 2200.62 248.08 2200.82 241.98 2196.81 242.03 2196.62 248.13"/><path class="cls-7" d="M2242.39,175.58v0s-.6-.07-.66-.06l-.65.07v0c-1.32.3-15.87,6.27-16.34,20.65l-1.67,52.18,8.28,8.91,7.85-.1h.33l6.11-.08,8.78-9.12,1.68-52.17C2256.57,181.48,2243.69,175.85,2242.39,175.58Z"/><ellipse class="cls-8" cx="2240.17" cy="217.18" rx="1.64" ry="1.48" transform="translate(8.15 506.35) rotate(-12.92)"/><ellipse class="cls-8" cx="2239.94" cy="224.52" rx="1.64" ry="1.48" transform="translate(6.5 506.48) rotate(-12.92)"/><polygon class="cls-8" points="2246.22 259.51 2230.56 259.71 2230.64 257.32 2246.29 257.12 2246.22 259.51"/><path class="cls-4" d="M2239.82,230.35h0a4.67,4.67,0,0,1,5,4.63l-.32,10-10.43.13.48-10.07A5.21,5.21,0,0,1,2239.82,230.35Z"/><path class="cls-8" d="M2224.73,197.71l-.39,11.94,31.32-.4.38-11.94Z"/><ellipse class="cls-14" cx="2240.58" cy="204.05" rx="4.38" ry="3.96" transform="translate(11.12 506.29) rotate(-12.92)"/><path class="cls-14" d="M2253.67,220.61l1.68-1.2.76-23.55c.46-14.38-12.42-20-13.72-20.28v0s-.6-.07-.66-.06l-.65.07v0A27.34,27.34,0,0,0,2228,185.85a27.71,27.71,0,0,1,11.35-7.93v0s.61-.08.66-.07.65.06.65.06v0c1.29.27,14.17,5.9,13.71,20.27Z"/><path class="cls-7" d="M2241.29,246l-7.28.09a.27.27,0,0,1-.28-.26.3.3,0,0,1,.3-.27l7.28-.09a.26.26,0,0,1,.28.26A.31.31,0,0,1,2241.29,246Z"/><polyline class="cls-11" points="2214.48 261.13 2218.59 261.08 2218.59 261.08 2218.71 257.32 2222.81 257.27 2222.81 257.27 2222.93 253.51 2227.04 253.46 2227.04 253.46 2227.16 249.71 2231.26 249.65 2231.26 249.65 2231.38 245.9 2244.45 245.73"/><path class="cls-8" d="M2327.16,167.74l.53,2.77a.3.3,0,0,0,.25.23l3,.47a.28.28,0,0,1,0,.55l-3,.48a.29.29,0,0,0-.25.23l-.53,2.77a.32.32,0,0,1-.61,0l-.53-2.77a.29.29,0,0,0-.25-.23l-3.05-.48a.28.28,0,0,1,0-.55l3.05-.47a.3.3,0,0,0,.25-.23l.53-2.77A.32.32,0,0,1,2327.16,167.74Z"/><path class="cls-8" d="M3064.16,146.68l.53,2.78a.29.29,0,0,0,.25.23l3,.48a.28.28,0,0,1,0,.56l-3,.48a.29.29,0,0,0-.25.23l-.53,2.78a.32.32,0,0,1-.61,0l-.53-2.78a.29.29,0,0,0-.25-.23l-3.05-.48a.28.28,0,0,1,0-.56l3.05-.48a.29.29,0,0,0,.25-.23l.53-2.78A.32.32,0,0,1,3064.16,146.68Z"/><circle class="cls-7" cx="1187.03" cy="118.53" r="2.29"/><circle class="cls-7" cx="843.03" cy="177.53" r="2.29"/><circle class="cls-7" cx="2616.03" cy="132.53" r="2.29"/><circle class="cls-7" cx="3470.03" cy="177.53" r="2.29"/><circle class="cls-7" cx="615.03" cy="193.53" r="2.29"/><circle class="cls-7" cx="1393.65" cy="154.01" r="2.29"/><circle class="cls-8" cx="1413.25" cy="120.82" r="2.29"/><ellipse class="cls-7" cx="1530.94" cy="188.1" rx="1.95" ry="1.76"/><ellipse class="cls-7" cx="955.94" cy="123.1" rx="1.95" ry="1.76"/><ellipse class="cls-7" cx="2008.94" cy="156.1" rx="1.95" ry="1.76"/><ellipse class="cls-7" cx="191.94" cy="184.1" rx="1.95" ry="1.76"/><ellipse class="cls-7" cx="394.94" cy="101.1" rx="1.95" ry="1.76"/><ellipse class="cls-7" cx="518.94" cy="114.1" rx="1.95" ry="1.76"/><ellipse class="cls-7" cx="74.94" cy="70.1" rx="1.95" ry="1.76"/><ellipse class="cls-8" cx="1110.94" cy="158.1" rx="1.95" ry="1.76"/><ellipse class="cls-8" cx="2755.94" cy="184.1" rx="1.95" ry="1.76"/><ellipse class="cls-8" cx="2463.94" cy="167.1" rx="1.95" ry="1.76"/><ellipse class="cls-8" cx="385.94" cy="186.1" rx="1.95" ry="1.76"/><ellipse class="cls-8" cx="111.94" cy="60.1" rx="1.95" ry="1.76"/><ellipse class="cls-8" cx="548.94" cy="56.1" rx="1.95" ry="1.76"/><ellipse class="cls-8" cx="3202.94" cy="106.1" rx="1.95" ry="1.76"/><g id="planet"><circle class="cls-15" cx="3003.45" cy="13.81" r="13.81"/><path class="cls-4" d="M2975,2.61c1.21-3.06,9.65-2.09,19.43.73-.32.28-.63.57-.93.88A54.81,54.81,0,0,0,2980,1.81c-2.22,0-3.61.41-3.92,1.2-.39,1,1,3.32,6.29,6.81a104.43,104.43,0,0,0,18.92,9.49c16.14,6.37,28.53,7.9,29.55,5.3.4-1-1-3.31-6.28-6.81a75.92,75.92,0,0,0-7.3-4.22c0-.44,0-.87-.07-1.29a80.45,80.45,0,0,1,8,4.6c3.58,2.38,7.65,5.73,6.7,8.13-.52,1.31-2.37,1.89-5.09,1.89-6.05,0-16.39-2.83-25.89-6.57a105.89,105.89,0,0,1-19.14-9.6C2978.16,8.36,2974.1,5,2975,2.61Z"/></g><g id="planet-2" data-name="planet"><circle class="cls-16" cx="344.22" cy="168.7" r="8.49"/><path class="cls-4" d="M325.53,167c.18-2,5.33-2.88,11.59-2.9-.14.22-.28.45-.4.68a33.54,33.54,0,0,0-8.41.91c-1.31.38-2.06.85-2.11,1.38s1.19,1.78,4.88,2.94a64.59,64.59,0,0,0,12.8,2.35c10.62,1,18.19-.23,18.35-1.94.06-.66-1.19-1.78-4.88-2.94a47.49,47.49,0,0,0-5-1.24c-.08-.26-.16-.51-.26-.75a51.09,51.09,0,0,1,5.5,1.34c2.52.8,5.5,2.08,5.35,3.66-.08.86-1.08,1.52-2.69,2-3.57,1-10.15,1.15-16.4.57a65.85,65.85,0,0,1-12.94-2.38C328.36,169.81,325.38,168.53,325.53,167Z"/></g><g id="planet-3" data-name="planet"><circle class="cls-17" cx="1995.22" cy="354.7" r="8.49"/><path class="cls-4" d="M1976.53,353c.18-2,5.33-2.88,11.59-2.9-.14.22-.28.45-.4.68a33.54,33.54,0,0,0-8.41.91c-1.31.38-2.06.85-2.11,1.38s1.19,1.78,4.88,2.94a64.59,64.59,0,0,0,12.8,2.35c10.62,1,18.19-.23,18.35-1.94.06-.66-1.19-1.78-4.88-2.94a47.49,47.49,0,0,0-5-1.24c-.08-.26-.16-.51-.26-.75a51.09,51.09,0,0,1,5.5,1.34c2.52.8,5.5,2.08,5.35,3.66-.08.86-1.08,1.52-2.69,2-3.57,1-10.15,1.15-16.4.57a65.85,65.85,0,0,1-12.94-2.38C1979.36,355.81,1976.38,354.53,1976.53,353Z"/></g><g id="planet-4" data-name="planet"><circle class="cls-18" cx="1013.67" cy="40.63" r="5.34"/><path class="cls-4" d="M1004.45,33.26c.79-1,3.8.33,7.09,2.48l-.44.22a21.21,21.21,0,0,0-4.73-2.43c-.83-.25-1.38-.26-1.59,0s0,1.34,1.55,3.23a40.75,40.75,0,0,0,5.92,5.65c5.23,4.19,9.64,6.16,10.31,5.32.26-.33,0-1.35-1.55-3.23a29.06,29.06,0,0,0-2.21-2.39c0-.16.08-.32.11-.49a31,31,0,0,1,2.43,2.61c1,1.29,2.18,3,1.55,3.76-.34.43-1.09.43-2.09.12-2.24-.69-5.74-2.9-8.82-5.36a41.6,41.6,0,0,1-6-5.72C1005,35.74,1003.83,34,1004.45,33.26Z"/></g><g id="planet-5" data-name="planet"><circle class="cls-19" cx="1370.95" cy="119.64" r="20.98"/><path class="cls-4" d="M1414.09,102.62c-1.83-4.64-14.65-3.17-29.51,1.11.49.42,1,.87,1.42,1.33,8.73-2.45,15.89-3.65,20.58-3.65,3.38,0,5.47.62,6,1.83.6,1.52-1.59,5-9.55,10.34-7.27,4.84-17.48,10-28.74,14.4-24.5,9.67-43.31,12-44.86,8.06-.6-1.53,1.59-5,9.54-10.34a118.6,118.6,0,0,1,11.07-6.43c0-.65,0-1.3.12-1.94a120.51,120.51,0,0,0-12.12,7c-5.43,3.62-11.61,8.71-10.17,12.35.78,2,3.6,2.87,7.73,2.87,9.19,0,24.89-4.29,39.31-10,11.37-4.48,21.68-9.65,29.05-14.57C1409.35,111.35,1415.53,106.27,1414.09,102.62Z"/></g><g id="blue"><path id="blue_shadow" data-name="blue shadow" class="cls-9" d="M2017.59,576.57c0-13.21-46.17-4.45-47.59-4.06,18.09-14.62,34.57-27.24,40.58-35.75-4.46-7-13.71-5.75-19.55-3.08-11.72,5.37-43.39,27.45-51.77,36.38,9.45-27.88,2.77-38.35-20.17-28.91-3.94,27.22-64.24,49.13-64.27,49.67,1.64,10.61,8.55,15.39,21,14.15-1,.48-37.56,13.54-36.25,16.64,3.33,7.85,38,5.37,47.68-2.48.34-2.06,7.7-4.89,13.63-6.49-1.89-.08-6.14-6.86-6.14-6.86,16.1-3.55,33.61-6.57,52.47-10.33C1964,592.11,2007.6,575.46,2017.59,576.57Z"/><g id="blue_person" data-name="blue person"><path class="cls-20" d="M1975,301.06s-.64,5.39-9.15,5.05-8.73-5.75-8.73-5.75l.45-11.44,17.88.7Z"/><path class="cls-21" d="M1956.51,283.4c.28-7.11,3.65-13.65,10.66-15.41h0c10.25.41,10.3,10.09,10.85,16.1s1.25,12-8.4,12C1963.78,296.08,1956.29,289,1956.51,283.4Z"/><path class="cls-21" d="M1978,286.46l.52.82a.46.46,0,0,1,0,.41l-.15.48a.48.48,0,0,0,.13.51h0a.51.51,0,0,1,.12.56l-.3.7a.59.59,0,0,0,0,.23l.21,3.34a.49.49,0,0,1-.33.49l-3.9,1.21c-.14.05-7.08-4-7.08-4a.49.49,0,0,1,0-.89l10.12-4A.49.49,0,0,1,1978,286.46Z"/><path class="cls-22" d="M1977.66,271.5a2.87,2.87,0,0,0-3.87-2.48l-1.39.38a6.41,6.41,0,0,0-4.6,3.31,3.94,3.94,0,0,0-2.57,2.05c-1,1.76-.59,3.8.81,4.55s3.3-.07,4.24-1.83a4.18,4.18,0,0,0,.49-2.53l4.28-.37A2.88,2.88,0,0,0,1977.66,271.5Z"/><circle cx="1974.28" cy="281.82" r="0.76"/><path d="M1972.75,279.33a3.78,3.78,0,0,1,1.56-.51,4.08,4.08,0,0,1,1.78.29c.4.15.37.42-.07.4a10.73,10.73,0,0,0-3.32.21C1972.26,279.81,1972.27,279.6,1972.75,279.33Z"/><path class="cls-21" d="M1977.75,286.11l1.25-.33a1.51,1.51,0,0,0,.62-2.23l-2.28-2.86Z"/><path class="cls-20" d="M1966.49,280.55a13.39,13.39,0,0,1,6-11.15,11,11,0,0,0-5.28-1.41h0c-9.4,1.43-9.93,7.57-11.4,16.4-1.33,8,8,11.69,13.85,11.71,3.87,0,7.58-.74,8.8-2.28C1972.46,292.47,1966.49,286.92,1966.49,280.55Z"/><path class="cls-20" d="M1920.4,548.52c3.35,1.82,15.25-3,16.67-11.28s-9.41-5.6-9.41-5.6S1912.12,544,1920.4,548.52Z"/><path class="cls-20" d="M2010.58,536.76c-2.55,3-15.54,3.81-19.55-3.08s6.62-9.14,6.62-9.14S2015.17,531.37,2010.58,536.76Z"/><path class="cls-23" d="M2005.64,447.77c-1.83-5.55-.7-8.37-.75-11.28.26-2.52-1.19-35.13-2.53-49.6-.39-4.23-2.59-15.48-2.59-15.48l-30.48.39s-6.47,28,3.8,61.64-4.51,37,3.77,77.31c2.32,11.3,7,28.22,23.05,21.09C2026.87,519.85,2007.64,453.79,2005.64,447.77Z"/><path class="cls-7" d="M1957.39,372h40.44s2.2,11.25,2.59,15.48c1.34,14.47,2.79,47.08,2.53,49.6,0,2.91-1.09,5.73.75,11.28,2,6,21.1,71.79-5.73,84.07-10.43,4.77-16.77-10.08-19.15-21.66-8.28-40.32,6.51-43.66-3.77-77.31S1957.39,372,1957.39,372Z"/><path class="cls-23" d="M1943.52,372s-4.9,11.08-5.71,15.48c-2.75,15.08,2.76,27.8-1.65,41.1a32.18,32.18,0,0,0-1.94,10,59.25,59.25,0,0,1-3.65,15.12c-2.59,6.27-29.36,77.23-1.37,85.42,17.1,5,20.16-11.31,23.44-22.57,12.22-42,3.19-56.84,11.32-80.54l19.92-65.25Z"/><path class="cls-24" d="M1998,532.41c4.94-2.26,8.32-6.34,10.54-11.52-3.41,3.65-8.91,7-14.3,7.31a14.19,14.19,0,0,1-11.4-5C1986.17,530.35,1991.21,535.5,1998,532.41Z"/><path class="cls-24" d="M1997.87,381.07l-37,3.47c2.69,9.72,6.81,24.27,11.78,40.79a16.11,16.11,0,0,1,7.25-11.29C2001.23,399.37,1997.87,381.07,1997.87,381.07Z"/><path class="cls-24" d="M2003.7,448.34a18.81,18.81,0,0,1-1-6.82c-2.77-5.16-8.32-11.07-9-10.32,0,0-5.18,2-4.26,6.67s-.68,8.86-.11,10.24,0,2.59,5.23,2.67c4.49.07,7.93.58,9.2-2.31Z"/><path class="cls-7" d="M1986.32,371.54,1945,372s-4.9,11.08-5.71,15.48c-2.75,15.08,2.76,27.8-1.65,41.1a32.18,32.18,0,0,0-1.94,10,59.25,59.25,0,0,1-3.65,15.12c-2.59,6.27-28.5,72.63-2.87,85.42,10,5,17.76-10.5,21.27-22.57,12.22-42,3.18-56.84,11.32-80.54Z"/><path class="cls-24" d="M1935.34,533.33c-9.52.56-14.28-5-16.66-10.78,1.28,7.51,4.46,13.53,10.52,16.56,6.36,3.17,11.83-2,15.88-9.28A18.52,18.52,0,0,1,1935.34,533.33Z"/><path class="cls-25" d="M1936.66,539.17c12.42-22.95,15.93-54.69,16.71-64,2.08-24.67,8-42,17-61.86l-.45-.2c-9,20-15.64,37.12-17.73,62-.79,9.45-4.38,42-17.24,64.77A9,9,0,0,0,1936.66,539.17Z"/><path class="cls-24" d="M1947.62,441.39c-1.71-7.88-6.37-7-12.11-1.16a45,45,0,0,1-2.91,12.1c-.15.35.22,3,2.44,3h8C1947.61,455.29,1950.35,453.9,1947.62,441.39Z"/><path class="cls-7" d="M1970.73,374.55a8.19,8.19,0,0,1,.39-2.57h-17.07l-.06-1.23-3,1.23H1945s0,.26-.12.7l-3.64,5.74,2.17,4.73s4.67.39,5.28-2.17c.32-1.35,1.81-2.7,3.17-3.67s14.07-.22,19.24,7.4C1970.54,383.54,1970.73,375.79,1970.73,374.55Z"/><path class="cls-26" d="M1990.56,363.43a8.08,8.08,0,0,1,.42-2.56c-12.89-4-39.45,12.43-39.45,12.43s33.93.93,18,40.74c0,0,32-11.63,28.33-42.06a.53.53,0,0,1,0-.13A8.64,8.64,0,0,1,1990.56,363.43Z"/><path class="cls-25" d="M1969.29,414.39l.41-.91a55.87,55.87,0,0,0,15.46-9.6c10-8.76,13.81-19.41,11.43-31.65l1.19-.23c3.07,15.82-4.75,26.58-11.85,32.81A52.12,52.12,0,0,1,1969.29,414.39Z"/><path class="cls-20" d="M1944.17,452.87h-8a4.08,4.08,0,0,1-4.21-3.66,22.2,22.2,0,0,1,.6-6,24.58,24.58,0,0,1,3.19-7.82,4.29,4.29,0,0,1,3.61-1.88h7.1a3.93,3.93,0,0,1,3.9,5.36,24.52,24.52,0,0,0-1.45,4.34,21.07,21.07,0,0,0-.52,5.61A4,4,0,0,1,1944.17,452.87Z"/><path class="cls-20" d="M1994.56,449.12h6a4.16,4.16,0,0,0,3.94-3.42,22.38,22.38,0,0,0,.19-5.65,21.92,21.92,0,0,0-1.79-7.3,3,3,0,0,0-2.8-1.76h-5.24a4.12,4.12,0,0,0-3.88,5,23.53,23.53,0,0,1,.72,4.05,21.67,21.67,0,0,1-.2,5.24A3.13,3.13,0,0,0,1994.56,449.12Z"/><path class="cls-7" d="M1960.48,381.8c-.36-7.12-14.36,1-14.36,1s-8.84,7.23-7.31,21.79c2.11,1.57,8.69,4.76,10.82,3.67,4.43-2.24,1-7.64,1-7.64s4.21,2.09,7,0,1.77-9.48,1.77-9.48l-5.59-2.33S1960.84,388.93,1960.48,381.8Z"/><path class="cls-6" d="M1983.81,305.33s13.69,3.21,17.66,13.55,31.07,22.32,38.81,38.75-1.37,27.9-17.32,15.68-17.2-23.32-23.45-29.76-14-14.45-14-14.45Z"/><path class="cls-7" d="M1983.81,305.33l1.65,23.77,7.45,7.66c-.55-4.2-.08-8.37,2.09-10.35,3.51-3.21,2.79-13.25,2.79-13.25C1992.24,307.31,1983.81,305.33,1983.81,305.33Z"/><path class="cls-20" d="M1983.81,305.33,1985.1,324l.41,0c6.55,0,11.9-4.79,12.28-10.81C1992.24,307.31,1983.81,305.33,1983.81,305.33Z"/><path class="cls-23" d="M1992.84,337.7s-1.6-22.13-3.09-24.95-1.55,15.72-1.55,15.72l2.63,11.55Z"/><path class="cls-27" d="M1995.53,368.64l-5.39-52.47A17.33,17.33,0,0,0,1972,299.09l-14.22.67a17.33,17.33,0,0,0-16.37,19.52c2.2,17.11,4.82,41.46,3.62,52.7Z"/><path class="cls-28" d="M1990.3,317.73l-.51-.14s-3.85,11.21-3,21.78,1.36,18,1.36,18l6.31,1.37Z"/><path class="cls-26" d="M1977.25,311.29c0,10.84,1.7,14.51,7.36,15.12s4.74-15.44.85-21.85a17.3,17.3,0,0,0-13.47-5.47l-8.43.4c0,.12.2.07.2.19S1977.23,300.44,1977.25,311.29Z"/><path class="cls-7" d="M1949.33,329.16c2.57-6.11,6.51-3.06,11.26-8.05s-1.08-14.25-1.08-14.25c-1-2.69-19.31,3-18.11,12.42,1,7.77,1,5.5,1.77,14.36C1945,333.64,1948.29,331.63,1949.33,329.16Z"/><path class="cls-23" d="M1959.77,309.85s.92,6.45-8.82,11.84-10.64,9.36-10.64,9.36l-1.68-10Z"/><path class="cls-6" d="M1940.15,379.21a8.28,8.28,0,0,1,1-4l-6-2.38s-7.58-20.7-8.69-26.85c-.7-3.82,13.43-20.53,26.55-27.09,7.58-3.78,9-11.82,3.16-17.08-4.51-4-12.18-.85-18.54,1-45.14,13.13-46.52,36.9-39.69,46.29,7.11,9.77,11.21,25.25,15.87,32.73,1.78,2.85,15.37,13,15.37,13C1934,398.07,1940.15,382.19,1940.15,379.21Z"/><path class="cls-23" d="M1918.43,361.92s4.94-4.76,13.63-3.19-.46,3.9-.46,3.9Z"/><path class="cls-20" d="M1945.29,362.37s33-10.1,49.86-2.4a64,64,0,0,0,2.68,12s-13.38,8.68-52.81,0A86.07,86.07,0,0,0,1945.29,362.37Z"/><path class="cls-29" d="M1991.66,374.23c.42-.1.81-.2,1.18-.31a95.7,95.7,0,0,1-2.17-15.51l-1.25-.3A96.21,96.21,0,0,0,1991.66,374.23Z"/><path class="cls-20" d="M2041,375.66c2.84-3.56,3-10.23-.71-18-2.86-6.07-8.37-11.54-14.38-16.54-2.53.31-3.67,1.84-5.39,3-3.54,2.42-7.41,10.4-9.46,17.3,2.59,4.6,6.21,7.53,11.91,11.9,3.72,2.85,7.07,4.41,9.92,4.92,2,1.43,6.13,4,7.64,3.1C2042.38,380.22,2043.43,377.57,2041,375.66Z"/><path class="cls-29" d="M2013,364.33c.29.38.6.75.91,1.12,6-18.15,12.94-21.2,15.08-21.7l-1.09-1C2024.87,343.84,2018.53,348,2013,364.33Z"/><path class="cls-29" d="M2041,375.66c2.84-3.56,3-10.23-.71-18a30.4,30.4,0,0,0-2.71-4.58c-1.72,1.87-8.94-4.74-8.94-4.74s7.59,9.26,3.36,18.15c-3.33,7-10.66,3.53-16.19,1a86.43,86.43,0,0,0,7.16,5.9c3.72,2.85,7.07,4.41,9.92,4.92,2,1.43,6.13,4,7.64,3.1C2042.38,380.22,2043.43,377.57,2041,375.66Z"/><path class="cls-23" d="M1934,371.54s7.5-.6,13.46-.86a1.49,1.49,0,0,1,1.5,1.91c-1.07,3.43-5.34,4.92-5.34,4.92l-9.62-3.12S1930,372.15,1934,371.54Z"/><path class="cls-20" d="M1933.68,370.75a109.07,109.07,0,0,0,13.46.53,1.49,1.49,0,0,1,1.5,1.91c-1.07,3.43-5.34,4.92-5.34,4.92l-9.62-3.12S1929.7,371.36,1933.68,370.75Z"/><path class="cls-20" d="M1957.42,384.86a3.06,3.06,0,1,0,0-6.11l-10.71.2c-5.08-.25-11.5-6.14-11.5-6.14s-2.12-5.79-4.28-12.15a14.28,14.28,0,0,0-2.79-.63c-3-.35-14.85.28-18.62,12.76,1.92,6.76,4.57,14.62,19.72,22a42.86,42.86,0,0,0,7.53,2.38c.19.06,2.57.2,6.65,4.49,1.94,2,4.22,2.51,5.46,2,3.71-1.42.84-5.11,0-6.17a29.81,29.81,0,0,0-4.75-5l11.69,2.73a3.23,3.23,0,0,0,.69.07,3.05,3.05,0,0,0,.68-6s-8.37-2.6-8.21-3.2S1957.42,384.86,1957.42,384.86Z"/><path class="cls-20" d="M1956.23,301.79c-4.51-4-12.2-.92-18.54,1-1.06.32-2.08.64-3.08,1a13.73,13.73,0,0,0-.16,2.14,14,14,0,0,0,14,14,14.41,14.41,0,0,0,3.56-.46l1.06-.56C1960.65,315.09,1962.12,307.05,1956.23,301.79Z"/><g class="cls-30"><path class="cls-23" d="M2004.43,395.29l-.18-.06c10.22,2.72,14.5-2.16,23.66-4.1,2.52-.53,8.48-8.93,8.84-8.81a27.3,27.3,0,1,0-32.33,13Z"/></g><circle class="cls-31" cx="2012.76" cy="369.29" r="27.31"/><path class="cls-20" d="M2040.75,358.67s-11.31,4.17-7.56,10.53c1.49,2.55,9.8-2.36,9.8-2.36s2.69-.9.89-5.37C2042.44,357.87,2040.75,358.67,2040.75,358.67Z"/><path class="cls-20" d="M2043,369.89s-7.39.06-8,2.09c-1.42,5,7.63,4.88,8.66,1.9C2045,370.19,2043,369.89,2043,369.89Z"/><path class="cls-20" d="M2029.08,343.83s3.63,6.33,6.54,9.44,4.78,2.7,5.36.86C2042.05,350.77,2041.3,347.8,2029.08,343.83Z"/><path class="cls-29" d="M1977,357.09l-1.23,0v18.72H1977Z"/><path class="cls-29" d="M1954.36,360.06l-1.2.27,1.08,13.45,1.24.21Z"/><ellipse class="cls-20" cx="1984" cy="317.59" rx="2.71" ry="4.85"/><ellipse class="cls-26" cx="1984" cy="317.59" rx="1.24" ry="2.22"/><ellipse class="cls-20" cx="1982.7" cy="308.58" rx="1.36" ry="2.42" transform="translate(-22.1 392.92) rotate(-11.26)"/><circle class="cls-8" cx="1963.53" cy="282.57" r="4.89"/><circle class="cls-29" cx="1963.53" cy="282.57" r="4.89"/><circle class="cls-20" cx="1963.53" cy="282.57" r="3.76"/><circle class="cls-20" cx="1926.72" cy="318.94" r="6.11"/><circle class="cls-6" cx="1926.72" cy="318.94" r="3.57"/><rect class="cls-25" x="2007.18" y="392.26" width="26.07" height="8.69" rx="1.17" ry="1.17" transform="translate(-29.93 584.94) rotate(-16.36)"/><path class="cls-25" d="M1988.2,322.51s-.67,3.92-3.9,3.26v1.35S1987.48,327.38,1988.2,322.51Z"/><path class="cls-32" d="M1978.39,288.17l0-.14a4.55,4.55,0,0,1-2.51-.1.3.3,0,0,0-.41.07.31.31,0,0,0,.07.43,3,3,0,0,0,1.61.3,11.06,11.06,0,0,0,1.29-.09A.52.52,0,0,1,1978.39,288.17Z"/><path class="cls-33" d="M2021.51,348.52a22.61,22.61,0,0,1,11.9,11.72"/><path class="cls-33" d="M2018,347.36l.76.2"/><path class="cls-25" d="M1976.64,311.29c0,10.93,1.81,14.85,7.39,15.66l1.57,30.52,1.24.17-1.64-31.78-.52-.06c-4.62-.49-6.81-2.79-6.81-14.51,0-7.52-5.74-10.67-10.37-12l-5.79.28h0a23.66,23.66,0,0,1,7.58,1.59C1974.17,303.15,1976.64,306.56,1976.64,311.29Z"/><path class="cls-25" d="M1981,470.17c.23-22.36.26-36.68-10.69-56.67a54.57,54.57,0,0,0,3.12-9.72c1.1-5.06,1.78-12.44-1.24-18.87a21.15,21.15,0,0,0-10.07-10s-2.74-.37-4.44-.58c6.3,2.23,11.06,6,13.42,11.06,5.51,11.73-1.34,27.9-1.42,28.06l-.12.56c11,19.84,10.46,33.85,10.24,56.12v.8c-.34,33.78,7.45,54.38,10.73,61.52a7.89,7.89,0,0,0,1.62.6c-2.84-5.82-11.5-26.59-11.14-62.11Z"/><path class="cls-29" d="M1931.6,362.63a23.4,23.4,0,0,0-12.27,1.72c-4.55,2-7.42,7.36-9,11.22.19.59.4,1.19.64,1.79,1.32-3.66,4.16-9.82,8.82-11.89a22.41,22.41,0,0,1,12.23-1.53Z"/></g></g><g id="yellow"><path id="yellow_shadow" data-name="yellow shadow" class="cls-9" d="M2121.29,620.23c-3.83-3.21-4.38-9.48-8.42-12.59,20.65-9.9,58.26-24.95,77.59-38.45,10.74-6.93-11.12-10-14.3-9.3-8.65,1.81-64.08,30-77.73,35.83,35.2-29.79,34-51.75,7.53-40.11.74.72-5.85,6.43-6.07,6.78-22.88,36.69-41.49,32.41-71.22,35.47-57.11,5.9-3,29.33,10.69,38.36-45.45-2.19-16.13,38.47,26.63,4.71-2.74-1.15-4.17-4.09-6.31-5.4C2069.23,635.76,2122.94,622.78,2121.29,620.23Z"/><g id="yellow_person" data-name="yellow person"><path class="cls-34" d="M2141.76,330.24s-.32,5.33,8,6.49,9.46-4,9.46-4l1.57-11.15-17.44-2.45Z"/><path class="cls-35" d="M2162.51,306.09a20,20,0,0,0-7.48-4.55c-3-.91-6.26-1-9.05.81a9.57,9.57,0,0,0-3.84,5.22c-.92,2.88-1.23,3.94-4,5.87l-.2.16a.79.79,0,0,0,.15,1.16,3.11,3.11,0,0,1,.64,2.38l-.41.45a.59.59,0,0,0-.08.66l.31.65-.27.15a.61.61,0,0,0-.26.77l.31,1h0V321c-.56,3.07.74,3.22,3.33,4.11a4.44,4.44,0,0,1,2.6,1.89c2.87-.07,5.76-.4,8.53-.66,1.24-.11,2.48-.31,3.72-.51a4.36,4.36,0,0,1,.33-.6c1.78-2.81,5.24-4.1,6.77-7.12C2165.66,314.06,2165.39,309.18,2162.51,306.09Z"/><circle cx="2143.37" cy="312.46" r="0.73"/><path d="M2145.87,310.77a3.65,3.65,0,0,0-1.26-.94,3.78,3.78,0,0,0-1.71-.29c-.41,0-.47.27-.06.38a10.21,10.21,0,0,1,2.95,1.23C2146.16,311.36,2146.22,311.17,2145.87,310.77Z"/><path class="cls-22" d="M2149.44,316.84c3.07,2.51-1.25,8.54-1.25,8.54.32,0,4.3.95,4.62.92,1.91-.18,3.81-.54,5.71-.84,1-.45,2.56-.49,3.57-.94-.22-1.56,1-4,2.25-6a10.94,10.94,0,0,0-1.2-12.88,21.48,21.48,0,0,0-8-4.89c-3.26-1-6.73-1.06-9.73.86a8.6,8.6,0,0,0-3.77,6.12l7.17,2.35S2147.63,315.35,2149.44,316.84Z"/><path class="cls-34" d="M2162.2,328.2v0a1.84,1.84,0,1,0-.11-3.66h-21.46a1.85,1.85,0,1,0-.06,3.66v0a1.84,1.84,0,1,0,.06,3.65h21.46a2,2,0,0,0,2.11-1.83A2,2,0,0,0,2162.2,328.2Z"/><path class="cls-36" d="M2139.79,318.72a2.83,2.83,0,0,1-1.33-.05l.11.23-.27.15-.08.07.24.08c1.12.28,1.51.1,1.58.07a.3.3,0,0,0,.15-.4A.31.31,0,0,0,2139.79,318.72Z"/><path class="cls-34" d="M2191.86,568.09c-3.19,1.74-14.53-2.86-15.87-10.74s9-5.34,9-5.34S2199.75,563.8,2191.86,568.09Z"/><path class="cls-34" d="M2106,556.89c2.43,2.85,14.8,3.63,18.62-2.93s-6.31-8.71-6.31-8.71S2101.59,551.76,2106,556.89Z"/><path class="cls-23" d="M2157.48,399.93h-40.85s-2.09,10.72-2.47,14.75c-1.27,13.79-2.65,44.85-2.41,47.25-.05,2.77,1,5.45-.71,10.74-1.9,5.73-22.26,71.84,6.93,80.08,14.4,4.07,18.26-10.53,20.32-20.59,7.89-38.41-7.42-41.63,2.36-73.69S2157.48,399.93,2157.48,399.93Z"/><path class="cls-23" d="M2182.18,477.28c-2.27-5.51-1.95-8.63-2.27-11.51a108.54,108.54,0,0,0-1.39-12.53c-2-12.47,1.85-26.15-.78-40.5-.76-4.2-7.9-13.3-7.9-13.3l-40-2.06,21.17,63.05c7.76,22.57-.85,36.7,10.79,76.72,3.07,10.56,7.88,27.78,22.61,21.85C2209.77,548.81,2184.64,483.25,2182.18,477.28Z"/><path class="cls-7" d="M2156.63,399.93h-38.52s-2.1,10.72-2.47,14.75c-1.28,13.79-2.66,44.85-2.41,47.25-.05,2.77,1,5.45-.72,10.74-1.9,5.73-20.09,68.39,5.46,80.08,9.93,4.55,16-9.6,18.24-20.63,7.89-38.41-6.19-41.59,3.59-73.65S2156.63,399.93,2156.63,399.93Z"/><path class="cls-24" d="M2118,552.75c-4.71-2.15-7.92-6-10-11,3.25,3.47,8.49,6.64,13.63,7a13.48,13.48,0,0,0,10.85-4.77C2129.21,550.79,2124.41,555.7,2118,552.75Z"/><path class="cls-24" d="M2118.07,408.59l35.29,3.31c-2.57,9.25-6.49,23.12-11.22,38.85a15.36,15.36,0,0,0-6.9-10.75C2114.86,426,2118.07,408.59,2118.07,408.59Z"/><path class="cls-24" d="M2112.51,472.67a17.72,17.72,0,0,0,1-6.49c2.65-4.93,7.93-10.55,8.56-9.84,0,0,4.93,1.92,4.06,6.36s.64,8.44.1,9.75,0,2.47-5,2.55c-4.28.06-7.56.54-8.77-2.21Z"/><path class="cls-7" d="M2129.07,399.52l39.34.41s7.14,9.1,7.9,13.3c2.63,14.35-1.22,28,.78,40.5a108.54,108.54,0,0,1,1.39,12.53c.32,2.88,0,6,2.27,11.51,2.46,6,27.14,69.18,2.73,81.36-9.49,4.74-16.92-10-20.26-21.49-11.64-40-3-54.15-10.79-76.72Z"/><path class="cls-24" d="M2177.63,553.62c9.07.54,13.61-4.73,15.87-10.26-1.22,7.15-4.25,12.89-10,15.77-6.06,3-11.27-1.89-15.12-8.83A17.44,17.44,0,0,0,2177.63,553.62Z"/><path class="cls-25" d="M2176.38,559.19c-11.84-21.86-15.18-52.09-15.93-61-2-23.49-7.64-40-16.15-58.92l.43-.19c8.56,19.07,14.9,35.36,16.88,59,.76,9,4.18,40,16.43,61.69A8.5,8.5,0,0,1,2176.38,559.19Z"/><path class="cls-24" d="M2165.93,466.05c1.63-7.5,6.07-6.69,11.54-1.11a42.28,42.28,0,0,0,2.77,11.53c.14.33-.21,2.82-2.32,2.82h-7.67C2165.94,479.29,2163.33,478,2165.93,466.05Z"/><path class="cls-7" d="M2143.92,402.39a8.13,8.13,0,0,0-.37-2.46h16.26l.05-1.17,2.9,1.17h5.65l.11.67,3.47,5.47-2.07,4.51s-4.45.37-5-2.08c-.3-1.28-1.72-2.56-3-3.49s-13.4-.21-18.33,7.05C2144.1,411,2143.92,403.56,2143.92,402.39Z"/><path class="cls-24" d="M2176.31,413.23a21.43,21.43,0,0,0-3-6.3,13.24,13.24,0,0,0-1.22-.74s-14.49-5.17-14.87-.62,7,4.46,7,4.46l-5.79,1.49s-1.21,3.38,1.63,4.71,7.1-.61,7.1-.61-3.25,5.4,1.34,6.83c1.3.41,4.73-3.77,8.58-3.53A56.47,56.47,0,0,0,2176.31,413.23Z"/><path class="cls-37" d="M2125,391.79a7.61,7.61,0,0,0-.4-2.44c12.28-3.82,37.58,11.84,37.58,11.84s-32.32.89-17.12,38.81c0,0-30.49-11.08-27-40.07v-.12A8.24,8.24,0,0,0,2125,391.79Z"/><path class="cls-25" d="M2145.29,440.33l-.39-.87a53.56,53.56,0,0,1-14.73-9.14c-9.49-8.35-13.15-18.49-10.88-30.15l-1.13-.22c-2.93,15.07,4.52,25.32,11.28,31.26A49.73,49.73,0,0,0,2145.29,440.33Z"/><path class="cls-34" d="M2169.22,477h7.65a3.88,3.88,0,0,0,4-3.49,20.28,20.28,0,0,0-.57-5.76,22.91,22.91,0,0,0-3-7.45,4.06,4.06,0,0,0-3.43-1.8h-6.76a3.75,3.75,0,0,0-3.72,5.11,23.63,23.63,0,0,1,1.38,4.14,19.8,19.8,0,0,1,.5,5.34A3.86,3.86,0,0,0,2169.22,477Z"/><path class="cls-34" d="M2121.22,473.41h-5.72a4,4,0,0,1-3.76-3.25,21.78,21.78,0,0,1-.18-5.38,21,21,0,0,1,1.7-7,2.89,2.89,0,0,1,2.68-1.67h5a3.92,3.92,0,0,1,3.7,4.76,21.68,21.68,0,0,0-.68,3.87,20.11,20.11,0,0,0,.19,5A3,3,0,0,1,2121.22,473.41Z"/><path class="cls-7" d="M2131.46,336.44s-13,3.06-16.82,12.91c-3.07,8-20.69,17-31.15,28.54-2.41,2.66-4.4,33.52,9.2,20.05,14.21-14.07,17.86-18.95,23.82-25.09s13.38-13.76,13.38-13.76Z"/><path class="cls-38" d="M2131.46,336.44l-1.57,22.65s-2.49,2.46-6.39,6.47c.54-4,.26-8.51-1.65-10.55-5.35-5.71-3.71-11.11-3.71-11.11C2123.43,338.33,2131.46,336.44,2131.46,336.44Z"/><path class="cls-34" d="M2131.46,336.44l-1.23,17.74-.39,0c-6.24,0-11.33-4.56-11.7-10.3C2123.43,338.33,2131.46,336.44,2131.46,336.44Z"/><path class="cls-23" d="M2126.81,340.37s-2.13.95-4.27,28.52l1.95-.57S2129.36,344.05,2126.81,340.37Z"/><path class="cls-39" d="M2120.3,396.75l5.13-50a16.51,16.51,0,0,1,17.29-16.27l13.55.64c9.62.46,20.85,10.52,15.58,18.59-13.41,20.57-2.34,33-1.68,50.9Z"/><path class="cls-23" d="M2157.73,333.08s.67-3.59,8.65-3-2.18,3.17-2.18,3.17Z"/><path class="cls-37" d="M2137.7,342.12c0,10.33-1.61,13.83-7,14.41s-4.51-14.71-.8-20.82a16.47,16.47,0,0,1,12.83-5.21l8,.38c0,.11-.19.07-.19.18S2137.73,331.79,2137.7,342.12Z"/><path class="cls-7" d="M2156.63,351.41c-6.31-1.8-2-13.51-2-13.51.92-2.56,17.05.29,15.9,9.22-.95,7.41-2.3,8.9-4.36,15.36C2164.37,362.48,2166.09,354.13,2156.63,351.41Z"/><path class="cls-23" d="M2154.45,341.82s-.64,5.45,7.42,9.67,8.31,7.46,8.31,7.46l1.89-4.34S2163.78,342.32,2154.45,341.82Z"/><path class="cls-23" d="M2174,406.82a8,8,0,0,0-1-3.83l3-4.1s6.74-14.7,7.8-20.56c.66-3.64-9.59-22.74-22.08-29-7.21-3.61-8.62-11.26-3-16.27,4.3-3.84,11.94-1.71,17.67.95,33.16,15.38,28.88,47,21.75,60.65-5.31,10.21-7,10.73-12.85,17C2183.1,414,2174,409.66,2174,406.82Z"/><path class="cls-40" d="M2173.05,406.82a8,8,0,0,0-1-3.83l3-4.1s6.74-14.7,7.8-20.56c.66-3.64-9.59-22.74-22.08-29-7.22-3.61-8.62-11.26-3-16.27,4.3-3.84,11.94-1.71,17.67.95,33.16,15.38,28.88,47,21.75,60.65-5.31,10.21-7,10.73-12.85,17C2182.11,414,2173.05,409.66,2173.05,406.82Z"/><path class="cls-23" d="M2188.53,393.33s6.29,2.29,8.47,11.66S2189,396.87,2188.53,393.33Z"/><path class="cls-34" d="M2169,391s-32.29-9.87-48.34-2.54a61.22,61.22,0,0,1-2.55,11.44s16.32,7.86,53.88-.41C2172.45,399.41,2170.89,394.73,2169,391Z"/><path class="cls-34" d="M2077.34,401.36c-2.47-3.09-2.58-8.9.62-15.69,2.49-5.28,7.28-10,12.51-14.39,2.2.26,3.2,1.6,4.69,2.62,3.08,2.11,6,7.65,7.79,13.65-2.25,4-5.3,6.59-10.26,10.39-3.24,2.48-5.81,5.22-8.29,5.66-1.79,1.24-5.34,3.47-6.66,2.69C2076.13,405.33,2075.22,403,2077.34,401.36Z"/><path class="cls-41" d="M2088.94,372.58l-1,.87c2.29,1.21,8.28,5.49,12,18.23.33-.36.64-.72.94-1.09C2097.23,378.6,2091.64,374.11,2088.94,372.58Z"/><path class="cls-41" d="M2077.34,401.36c-2.47-3.09-2.58-8.9.62-15.69a25.78,25.78,0,0,1,2.35-4c1.5,1.63,7.79-4.13,7.79-4.13s-6.61,8.06-2.93,15.79c2.9,6.1,8.92,1.73,13.72-.51a73.23,73.23,0,0,1-6.2,5.1c-3.24,2.48-5.81,5.22-8.29,5.66-1.79,1.24-5.34,3.47-6.66,2.69C2076.13,405.33,2075.22,403,2077.34,401.36Z"/><path class="cls-23" d="M2177.59,399.13a55.2,55.2,0,0,1-8.52-2c-.71-.24-2.26-.05-2.26,1.18,0,2.62,3.39,4,3.39,4l6.53-.21S2180.26,400.37,2177.59,399.13Z"/><path class="cls-34" d="M2178.21,399.79a78,78,0,0,1-9.57-2.36,1.09,1.09,0,0,0-1.44,1c.05,2.63,2.75,4.54,2.75,4.54l7.39-.24S2180.87,401,2178.21,399.79Z"/><path class="cls-34" d="M2159.45,406.8a2.23,2.23,0,0,1,0-4.46l7.83.14a14.67,14.67,0,0,0,6.62-2.08,45.05,45.05,0,0,0,4.31-8.85c5.29-1,12.71.16,15.46,9.28-1.4,4.94-2.58,9-12.55,14.74-2,1.15-6.24.13-6.57.24-.14.05-1.88.15-4.86,3.28-1.42,1.49-3.09,1.84-4,1.49-2.7-1-.61-3.74,0-4.51a22,22,0,0,1,3.48-3.68l-8.55,2a2.2,2.2,0,0,1-.5.06,2.23,2.23,0,0,1-.5-4.41s6.12-1.9,6-2.34S2159.45,406.8,2159.45,406.8Z"/><path class="cls-34" d="M2157.73,333.08c4.3-3.84,10.78-1.69,16.82.15a38.73,38.73,0,0,1,3.78,1.71,13.7,13.7,0,0,1,.15,2,13.33,13.33,0,0,1-13.34,13.33,13.07,13.07,0,0,1-3.39-.44c-.34-.18-.67-.36-1-.52C2153.52,345.74,2152.12,338.09,2157.73,333.08Z"/><g class="cls-30"><path class="cls-23" d="M2111.82,422.13l.17-.05c-9.74,2.59-13.81-2.05-22.54-3.91-2.4-.5-8.07-8.5-8.42-8.38a26,26,0,1,1,30.8,12.35Z"/></g><circle class="cls-42" cx="2103.88" cy="397.38" r="26.01"/><path class="cls-34" d="M2077.55,386.58s9.84,3.63,6.58,9.16c-1.3,2.22-8.53-2.05-8.53-2.05s-2.34-.79-.78-4.68C2076.08,385.88,2077.55,386.58,2077.55,386.58Z"/><path class="cls-34" d="M2075.56,396.34s6.42.05,6.93,1.82c1.24,4.34-6.64,4.24-7.54,1.65C2073.84,396.6,2075.56,396.34,2075.56,396.34Z"/><path class="cls-34" d="M2087.71,373.66a56.42,56.42,0,0,1-5.7,8.21c-2.54,2.7-4.16,2.36-4.67.75C2076.42,379.7,2077.07,377.12,2087.71,373.66Z"/><path class="cls-41" d="M2137.92,385.75l1.17,0v17.53h-1.17Z"/><path class="cls-41" d="M2159.51,388.58l1.15.26-1,12.81-1.19.2Z"/><ellipse class="cls-34" cx="2131.28" cy="348.13" rx="2.58" ry="4.62"/><ellipse class="cls-37" cx="2131.28" cy="348.13" rx="1.18" ry="2.11"/><ellipse class="cls-34" cx="2132.52" cy="339.54" rx="2.31" ry="1.29" transform="translate(1383.28 2364.77) rotate(-78.74)"/><circle class="cls-34" cx="2184.3" cy="351.41" r="5.82"/><circle class="cls-6" cx="2184.3" cy="351.41" r="3.4"/><rect class="cls-25" x="2084.36" y="419.25" width="24.83" height="8.28" rx="1.12" ry="1.12" transform="translate(3989.48 1420.09) rotate(-163.64)"/><path class="cls-25" d="M2127.28,352.81s.63,3.73,3.71,3.11v1.29S2128,357.45,2127.28,352.81Z"/><path class="cls-43" d="M2124,389.93a21.52,21.52,0,0,1-.41,15.9"/><path class="cls-43" d="M2122.54,386.74l.36.66"/><path class="cls-25" d="M2138.29,342.12c0,10.42-1.73,14.15-7,14.92l-1.5,29.08c-.39,0-.79.1-1.17.16l1.56-30.28.49-.05c4.4-.47,6.49-2.66,6.49-13.83,0-7.16,5.46-10.16,9.88-11.42l5.51.27h0a22.74,22.74,0,0,0-7.22,1.51C2140.64,334.37,2138.29,337.61,2138.29,342.12Z"/><path class="cls-25" d="M2134.11,493.46c-.21-21.3-.24-34.94,10.19-54a51.42,51.42,0,0,1-3-9.25c-1-4.82-1.7-11.86,1.18-18a20.15,20.15,0,0,1,9.59-9.5s2.61-.35,4.23-.55c-6,2.12-10.54,5.76-12.78,10.54-5.25,11.17,1.28,26.57,1.35,26.72l.12.54c-10.43,18.9-10,32.24-9.76,53.45v.76c.33,32.18-7.09,51.8-10.22,58.61a8.65,8.65,0,0,1-1.54.57c2.7-5.54,10.95-25.33,10.61-59.16Z"/><path class="cls-22" d="M2165.39,309.53s1.8-4.37,9.31-2.94c7,1.34,4.45,11.3,13,12.76,0,0-6.77,3.32-12.25-1s-6-5.85-10.5-3.73S2165.39,309.53,2165.39,309.53Z"/><path class="cls-41" d="M2192.15,405.27a15.72,15.72,0,0,0,.67-1.67c-3.17-7.57-9.87-10.33-15.5-9.73-.19.45-.38.89-.58,1.31C2182.31,394.27,2189.32,397,2192.15,405.27Z"/><path class="cls-44" d="M2150,378.09c1.55,9.39,15.5,11.31,15.5,11.31l2.32.54c-1.91-8.79-4.7-16.83-2.81-26.28C2153.18,363.66,2148.94,371.65,2150,378.09Z"/></g></g></g></g></g></svg>